SplineFontDB: 3.2
FontName: Samaano-Bold
FullName: Samaano Bold
FamilyName: Samaano
Weight: Bold
Copyright: Copyright (c) 2024, Samaano Font Authors (https://github.com/mitradranirban/samaano-fonts)
UComments: "2024-8-27: Created with FontForge (http://fontforge.org)"
Version: 0.1
StyleMapFamilyName: Samaano Bold
ItalicAngle: 0
UnderlinePosition: -204
UnderlineWidth: 102
Ascent: 1638
Descent: 410
InvalidEm: 0
UFOAscent: 1638
UFODescent: -410
LayerCount: 2
Layer: 0 0 "Back" 1
Layer: 1 0 "public.default" 0 "glyphs"
StyleMap: 0x0040
FSType: 0
OS2Version: 0
OS2_WeightWidthSlopeOnly: 0
OS2_UseTypoMetrics: 0
CreationTime: 1725035952
ModificationTime: 1725036983
PfmFamily: 17
TTFWeight: 700
TTFWidth: 5
LineGap: 0
VLineGap: 0
OS2TypoAscent: 1638
OS2TypoAOffset: 0
OS2TypoDescent: -410
OS2TypoDOffset: 0
OS2TypoLinegap: 0
OS2WinAscent: 1800
OS2WinAOffset: 0
OS2WinDescent: 600
OS2WinDOffset: 0
HheadAscent: 1683
HheadAOffset: 0
HheadDescent: -410
HheadDOffset: 0
OS2CapHeight: 1654
OS2XHeight: 1024
OS2FamilyClass: 1031
OS2Vendor: 'anir'
MarkAttachClasses: 1
DEI: 91125
LangName: 1033 "Copyright (c) 2024, Samaano Font Authors (https://github.com/mitradranirban/samaano-fonts)" "" "" "" "" "Version 0.001" "" "" "" "Dr Anirban Mitra" "A Monspace Variable Font Family in Latin an Devanagari created using rectangular components only " "" "https://github.com/mitradranirban" "This Font Software is licensed under the SIL Open Font License, Version 1.1." "http://scripts.sil.org/OFL"
Encoding: UnicodeBmp
UnicodeInterp: none
NameList: AGL For New Fonts
DisplaySize: -128
AntiAlias: 1
FitToEm: 0
WinInfo: 60 10 4
BeginPrivate: 0
EndPrivate
Grid
1866 935.200195312 m 0
 -2230 935.200195312 l 1024
EndSplineSet
BeginChars: 65536 97

StartChar: .notdef
Encoding: 0 0 0
GlifName: _notdef
Width: 1024
VWidth: 0
Flags: HW
LayerCount: 2
Fore
SplineSet
100 0 m 257
 100 64 l 257
 100 1632 l 257
 1098 1640 l 257
 1100 0 l 257
 1030 0 l 257
 170 0 l 257
 100 0 l 257
170 64 m 257
 567 827 l 257
 174 1546 l 257
 170 64 l 257
266 64 m 257
 946 64 l 257
 605 750 l 257
 266 64 l 257
294 1548 m 257
 607 909 l 257
 925 1558 l 257
 294 1548 l 257
645 832 m 257
 1029 64 l 257
 1021 1559 l 257
 645 832 l 257
EndSplineSet
EndChar

StartChar: A
Encoding: 65 65 1
GlifName: A_
Width: 1024
VWidth: 0
Flags: HW
LayerCount: 2
Fore
SplineSet
112 16 m 257
 272 16 l 257
 254 1537 l 257
 90 1541 l 257
 112 16 l 257
182 1383 m 257
 1026 1379 l 257
 1020 1541 l 257
 182 1534 l 257
 182 1383 l 257
204 1025 m 257
 202 871 l 257
 1004 878 l 257
 1004 1025 l 257
 204 1025 l 257
942 2 m 257
 1110 5 l 257
 1108 1542 l 257
 940 1545 l 257
 942 2 l 257
EndSplineSet
EndChar

StartChar: B
Encoding: 66 66 2
GlifName: B_
Width: 1024
VWidth: 0
Flags: HW
LayerCount: 2
Fore
SplineSet
130 2 m 257
 288 2 l 257
 248 1533 l 257
 110 1534 l 257
 130 2 l 257
210 1358 m 257
 1070 998 l 257
 1084 1126 l 257
 246 1533 l 257
 210 1358 l 257
210 717 m 257
 1082 989 l 257
 1082 1123 l 257
 210 898 l 257
 210 717 l 257
248 232 m 257
 286 -2 l 257
 1078 434 l 257
 1090 588 l 257
 248 232 l 257
226 514 m 257
 1084 424 l 257
 1090 597 l 257
 210 730 l 257
 226 514 l 257
EndSplineSet
EndChar

StartChar: C
Encoding: 67 67 3
GlifName: C_
Width: 1024
VWidth: 0
Flags: HW
LayerCount: 2
Fore
SplineSet
158 1533 m 257
 306 1533 l 257
 309 3 l 257
 161 3 l 257
 158 1533 l 257
257 1534 m 257
 1040 1541 l 257
 1042 1369 l 257
 257 1367 l 257
 257 1534 l 257
243 143 m 257
 1038 136 l 257
 1041 -3 l 257
 243 1 l 257
 243 143 l 257
EndSplineSet
EndChar

StartChar: D
Encoding: 68 68 4
GlifName: D_
Width: 1024
VWidth: 0
Flags: HW
LayerCount: 2
Fore
SplineSet
196 1535 m 257
 230 -1 l 257
 379 5 l 257
 381 1532 l 257
 196 1535 l 257
386 1535 m 257
 308 1330 l 257
 1003 799 l 257
 1004 1019 l 257
 386 1535 l 257
318 263 m 257
 375 10 l 257
 1003 805 l 257
 1001 1025 l 257
 318 263 l 257
EndSplineSet
EndChar

StartChar: E
Encoding: 69 69 5
GlifName: E_
Width: 1024
VWidth: 0
Flags: HW
LayerCount: 2
Fore
SplineSet
210 1537 m 257
 217 3 l 257
 390 3 l 257
 378 1535 l 257
 210 1537 l 257
288 1536 m 257
 295 1403 l 257
 1009 1402 l 257
 1007 1536 l 257
 288 1536 l 257
277 170 m 257
 278 4 l 257
 1027 1 l 257
 1023 170 l 257
 277 170 l 257
277 888 m 257
 277 702 l 257
 776 702 l 257
 776 888 l 257
 277 888 l 257
EndSplineSet
EndChar

StartChar: F
Encoding: 70 70 6
GlifName: F_
Width: 1024
VWidth: 0
Flags: HW
LayerCount: 2
Fore
SplineSet
197 1534 m 257
 204 3 l 257
 377 3 l 257
 364 1540 l 257
 197 1534 l 257
300 1532 m 257
 299 1366 l 257
 1018 1383 l 257
 1011 1545 l 257
 300 1532 l 257
287 880 m 257
 288 661 l 257
 845 649 l 257
 836 874 l 257
 287 880 l 257
EndSplineSet
EndChar

StartChar: G
Encoding: 71 71 7
GlifName: G_
Width: 1024
VWidth: 0
Flags: HW
LayerCount: 2
Fore
SplineSet
110 1529 m 257
 110 -4 l 257
 312 -4 l 257
 312 1529 l 257
 110 1529 l 257
168 1529 m 257
 168 1368 l 257
 868 1368 l 257
 868 1529 l 257
 168 1529 l 257
141 193 m 257
 141 0 l 257
 904 0 l 257
 904 193 l 257
 141 193 l 257
688 561 m 257
 688 18 l 257
 904 18 l 257
 904 561 l 257
 688 561 l 257
EndSplineSet
PickledDataWithLists: "(dp0
."
EndChar

StartChar: H
Encoding: 72 72 8
GlifName: H_
Width: 1024
VWidth: 0
Flags: HW
LayerCount: 2
Fore
SplineSet
89 1540 m 257
 89 1 l 257
 289 1 l 257
 289 1540 l 257
 89 1540 l 257
675 1540 m 257
 675 1 l 257
 885 1 l 257
 885 1540 l 257
 675 1540 l 257
209 923 m 257
 209 683 l 257
 755 683 l 257
 755 923 l 257
 209 923 l 257
EndSplineSet
PickledDataWithLists: "(dp0
."
EndChar

StartChar: I
Encoding: 73 73 9
GlifName: I_
Width: 1024
VWidth: 0
Flags: HW
LayerCount: 2
Fore
SplineSet
144 1537 m 257
 144 1309 l 257
 845 1309 l 257
 845 1537 l 257
 144 1537 l 257
329 1468 m 257
 329 84 l 257
 625 84 l 257
 625 1468 l 257
 329 1468 l 257
124 252 m 257
 124 6 l 257
 880 6 l 257
 880 252 l 257
 124 252 l 257
EndSplineSet
PickledDataWithLists: "(dp0
."
EndChar

StartChar: J
Encoding: 74 74 10
GlifName: J_
Width: 1024
VWidth: 0
Flags: HW
LayerCount: 2
Fore
SplineSet
613 1527 m 257
 613 1 l 257
 900 1 l 257
 900 1527 l 257
 613 1527 l 257
126 282 m 257
 126 0 l 257
 741 0 l 257
 741 282 l 257
 126 282 l 257
125 503 m 257
 125 54 l 257
 362 52 l 257
 362 503 l 257
 125 503 l 257
EndSplineSet
PickledDataWithLists: "(dp0
."
EndChar

StartChar: K
Encoding: 75 75 11
GlifName: K_
Width: 1024
VWidth: 0
Flags: HW
LayerCount: 2
Fore
SplineSet
118 1535 m 257
 118 5 l 257
 289 5 l 257
 289 1535 l 257
 118 1535 l 257
167 951 m 257
 282 835 l 257
 969 1538 l 257
 759 1536 l 257
 167 951 l 257
293 798 m 257
 156 643 l 257
 776 -1 l 257
 992 0 l 257
 293 798 l 257
EndSplineSet
PickledDataWithLists: "(dp0
."
EndChar

StartChar: L
Encoding: 76 76 12
GlifName: L_
Width: 1024
VWidth: 0
Flags: HW
LayerCount: 2
Fore
SplineSet
53 1542 m 257
 53 3 l 257
 307 3 l 257
 307 1542 l 257
 53 1542 l 257
162 279 m 257
 167 3 l 257
 893 3 l 257
 888 279 l 257
 162 279 l 257
EndSplineSet
PickledDataWithLists: "(dp0
."
EndChar

StartChar: M
Encoding: 77 77 13
GlifName: M_
Width: 1024
VWidth: 0
Flags: HW
LayerCount: 2
Fore
SplineSet
101 1546 m 257
 101 2 l 257
 281 2 l 257
 281 1546 l 257
 101 1546 l 257
749 1541 m 257
 749 -3 l 257
 924 -3 l 257
 924 1541 l 257
 749 1541 l 257
138 1429 m 257
 428 1026 l 257
 616 1031 l 257
 280 1546 l 257
 138 1429 l 257
749 1541 m 257
 427 1027 l 257
 614 1025 l 257
 915 1488 l 257
 749 1541 l 257
EndSplineSet
PickledDataWithLists: "(dp0
."
EndChar

StartChar: N
Encoding: 78 78 14
GlifName: N_
Width: 1024
VWidth: 0
Flags: HW
LayerCount: 2
Fore
SplineSet
97 1537 m 257
 101 2 l 257
 281 2 l 257
 276 1536 l 257
 97 1537 l 257
749 1541 m 257
 749 0 l 257
 925 1 l 257
 924 1541 l 257
 749 1541 l 257
97 1537 m 257
 748 -1 l 257
 926 -1 l 257
 275 1536 l 257
 97 1537 l 257
EndSplineSet
PickledDataWithLists: "(dp0
."
EndChar

StartChar: O
Encoding: 79 79 15
GlifName: O_
Width: 1024
VWidth: 0
Flags: HW
LayerCount: 2
Fore
SplineSet
110 1540 m 257
 110 5 l 257
 330 5 l 257
 330 1540 l 257
 110 1540 l 257
696 1537 m 257
 696 -2 l 257
 910 -2 l 257
 910 1537 l 257
 696 1537 l 257
174 1538 m 257
 174 1306 l 257
 817 1306 l 257
 817 1538 l 257
 174 1538 l 257
150 246 m 257
 150 3 l 257
 823 3 l 257
 823 246 l 257
 150 246 l 257
EndSplineSet
PickledDataWithLists: "(dp0
."
EndChar

StartChar: P
Encoding: 80 80 16
GlifName: P_
Width: 1024
VWidth: 0
Flags: HW
LayerCount: 2
Fore
SplineSet
112 1535 m 257
 112 -1 l 257
 302 -1 l 257
 302 1535 l 257
 112 1535 l 257
191 1536 m 257
 191 1322 l 257
 847 1322 l 257
 847 1536 l 257
 191 1536 l 257
697 1536 m 257
 697 872 l 257
 874 872 l 257
 874 1536 l 257
 697 1536 l 257
175 1030 m 257
 175 868 l 257
 862 868 l 257
 862 1030 l 257
 175 1030 l 257
EndSplineSet
PickledDataWithLists: "(dp0
."
EndChar

StartChar: Q
Encoding: 81 81 17
GlifName: Q_
Width: 1024
VWidth: 0
Flags: HW
LayerCount: 2
Fore
SplineSet
110 1540 m 257
 110 5 l 257
 330 5 l 257
 330 1540 l 257
 110 1540 l 257
696 1537 m 257
 696 -2 l 257
 910 -2 l 257
 910 1537 l 257
 696 1537 l 257
174 1538 m 257
 174 1306 l 257
 817 1306 l 257
 817 1538 l 257
 174 1538 l 257
150 246 m 257
 150 3 l 257
 823 3 l 257
 823 246 l 257
 150 246 l 257
558 21 m 257
 744 -285 l 257
 935 -169 l 257
 749 137 l 257
 558 21 l 257
EndSplineSet
PickledDataWithLists: "(dp0
."
EndChar

StartChar: R
Encoding: 82 82 18
GlifName: R_
Width: 1024
VWidth: 0
Flags: HW
LayerCount: 2
Fore
SplineSet
112 1535 m 257
 112 -1 l 257
 302 -1 l 257
 302 1535 l 257
 112 1535 l 257
191 1536 m 257
 191 1322 l 257
 847 1322 l 257
 847 1536 l 257
 191 1536 l 257
697 1536 m 257
 697 872 l 257
 874 872 l 257
 874 1536 l 257
 697 1536 l 257
175 1030 m 257
 175 868 l 257
 862 868 l 257
 862 1030 l 257
 175 1030 l 257
341 906 m 257
 744 1 l 257
 909 1 l 257
 521 875 l 257
 341 906 l 257
EndSplineSet
PickledDataWithLists: "(dp0
."
EndChar

StartChar: S
Encoding: 83 83 19
GlifName: S_
Width: 1024
VWidth: 0
Flags: HW
LayerCount: 2
Fore
SplineSet
146 1539 m 257
 146 1358 l 257
 744 1358 l 257
 744 1539 l 257
 146 1539 l 257
146 1542 m 257
 146 1028 l 257
 351 1028 l 257
 351 1542 l 257
 146 1542 l 257
174 163 m 257
 174 0 l 257
 882 0 l 257
 882 163 l 257
 174 163 l 257
712 1 m 257
 918 1 l 257
 918 355 l 257
 712 355 l 257
 712 1 l 257
146 1028 m 257
 712 355 l 257
 918 355 l 257
 351 1028 l 257
 146 1028 l 257
EndSplineSet
PickledDataWithLists: "(dp0
."
EndChar

StartChar: T
Encoding: 84 84 20
GlifName: T_
Width: 1024
VWidth: 0
Flags: HW
LayerCount: 2
Fore
SplineSet
118 1549 m 257
 118 1259 l 257
 892 1259 l 257
 892 1549 l 257
 118 1549 l 257
379 1442 m 257
 379 12 l 257
 623 12 l 257
 623 1442 l 257
 379 1442 l 257
EndSplineSet
PickledDataWithLists: "(dp0
."
EndChar

StartChar: U
Encoding: 85 85 21
GlifName: U_
Width: 1024
VWidth: 0
Flags: HW
LayerCount: 2
Fore
SplineSet
157 1536 m 257
 157 0 l 257
 323 0 l 257
 325 1536 l 257
 157 1536 l 257
693 1535 m 257
 693 0 l 257
 868 0 l 257
 867 1535 l 257
 693 1535 l 257
204 183 m 257
 205 0 l 257
 824 0 l 257
 824 183 l 257
 204 183 l 257
EndSplineSet
PickledDataWithLists: "(dp0
."
EndChar

StartChar: V
Encoding: 86 86 22
GlifName: V_
Width: 1024
VWidth: 0
Flags: HW
LayerCount: 2
Fore
SplineSet
92 1533 m 257
 324 0 l 257
 573 0 l 257
 277 1533 l 257
 92 1533 l 257
718 1529 m 257
 477 1 l 257
 684 -2 l 257
 903 1529 l 257
 718 1529 l 257
EndSplineSet
PickledDataWithLists: "(dp0
."
EndChar

StartChar: W
Encoding: 87 87 23
GlifName: W_
Width: 1024
VWidth: 0
Flags: HW
LayerCount: 2
Fore
SplineSet
104 1528 m 257
 105 1 l 257
 313 0 l 257
 312 1528 l 257
 104 1528 l 257
714 1533 m 257
 714 12 l 257
 922 12 l 257
 922 1533 l 257
 714 1533 l 257
416 1028 m 257
 417 1 l 257
 623 1 l 257
 624 1028 l 257
 416 1028 l 257
103 276 m 257
 105 1 l 257
 922 0 l 257
 922 276 l 257
 103 276 l 257
EndSplineSet
PickledDataWithLists: "(dp0
."
EndChar

StartChar: X
Encoding: 88 88 24
GlifName: X_
Width: 1024
VWidth: 0
Flags: HWO
LayerCount: 2
Fore
SplineSet
16 1543 m 257
 242 1540 l 257
 991 0 l 261
 733 0 l 261
 16 1543 l 257
119 16 m 257
 710 1554 l 257
 1006 1552 l 257
 416 0 l 257
 119 16 l 257
EndSplineSet
EndChar

StartChar: Y
Encoding: 89 89 25
GlifName: Y_
Width: 1024
VWidth: 0
Flags: HW
LayerCount: 2
Fore
SplineSet
424 895 m 257
 424 -2 l 257
 619 -2 l 257
 619 895 l 257
 424 895 l 257
182 1547 m 257
 182 859 l 257
 344 859 l 257
 344 1547 l 257
 182 1547 l 257
675 1536 m 257
 675 859 l 257
 864 859 l 257
 864 1536 l 257
 675 1536 l 257
228 1019 m 257
 228 859 l 257
 774 859 l 257
 774 1019 l 257
 228 1019 l 257
EndSplineSet
PickledDataWithLists: "(dp0
."
EndChar

StartChar: Z
Encoding: 90 90 26
GlifName: Z_
Width: 1024
VWidth: 0
Flags: HW
LayerCount: 2
Fore
SplineSet
98 1535 m 257
 98 1289 l 257
 926 1289 l 257
 926 1535 l 257
 98 1535 l 257
98 259 m 257
 98 13 l 257
 926 13 l 257
 926 259 l 257
 98 259 l 257
627 1289 m 257
 97 259 l 257
 406 259 l 257
 926 1289 l 257
 627 1289 l 257
EndSplineSet
PickledDataWithLists: "(dp0
."
EndChar

StartChar: a
Encoding: 97 97 27
GlifName: a
Width: 1024
VWidth: 0
Flags: HW
LayerCount: 2
Fore
SplineSet
254 1025 m 257
 254 879 l 257
 858 879 l 257
 860 1024 l 257
 254 1025 l 257
790 1025 m 257
 788 -1 l 257
 946 1 l 257
 942 1025 l 257
 790 1025 l 257
258 602 m 257
 260 445 l 257
 882 444 l 257
 882 600 l 257
 258 602 l 257
258 575 m 257
 258 -2 l 257
 432 -2 l 257
 432 575 l 257
 258 575 l 257
256 187 m 257
 258 -2 l 257
 946 0 l 257
 946 188 l 257
 256 187 l 257
EndSplineSet
PickledDataWithLists: "(dp0
."
EndChar

StartChar: ampersand
Encoding: 38 38 28
GlifName: ampersand
Width: 1024
VWidth: 0
Flags: HW
LayerCount: 2
Fore
SplineSet
277 1536 m 257
 724 12 l 257
 871 56 l 257
 439 1534 l 257
 277 1536 l 257
820 1401 m 257
 820 1536 l 257
 355 1536 l 257
 355 1401 l 257
 820 1401 l 257
660 1446 m 257
 660 917 l 257
 820 917 l 257
 820 1446 l 257
 660 1446 l 257
124 1045 m 257
 124 843 l 257
 820 843 l 257
 820 1045 l 257
 124 1045 l 257
124 1045 m 257
 124 24 l 257
 334 24 l 257
 334 1045 l 257
 124 1045 l 257
124 190 m 257
 124 6 l 257
 933 6 l 257
 933 190 l 257
 124 190 l 257
EndSplineSet
PickledDataWithLists: "(dp0
."
EndChar

StartChar: asciicircum
Encoding: 94 94 29
GlifName: asciicircum
Width: 1024
VWidth: 0
Flags: HW
LayerCount: 2
Fore
SplineSet
607 1023 m 257
 458 1025 l 257
 193 407 l 257
 343 345 l 257
 607 1023 l 257
464 904 m 257
 720 343 l 257
 870 400 l 257
 607 1023 l 257
 464 904 l 257
EndSplineSet
PickledDataWithLists: "(dp0
."
EndChar

StartChar: asterisk
Encoding: 42 42 30
GlifName: asterisk
Width: 1024
VWidth: 0
Flags: HW
LayerCount: 2
Fore
SplineSet
417 1297 m 257
 417 300 l 257
 647 300 l 257
 647 1297 l 257
 417 1297 l 257
60 1099 m 257
 788 360 l 257
 947 504 l 257
 215 1241 l 257
 60 1099 l 257
812 1232 m 257
 89 525 l 257
 231 372 l 257
 954 1079 l 257
 812 1232 l 257
EndSplineSet
PickledDataWithLists: "(dp0
."
EndChar

StartChar: at
Encoding: 64 64 31
GlifName: at
Width: 1024
VWidth: 0
Flags: HW
LayerCount: 2
Fore
SplineSet
254 1024 m 257
 255 879 l 257
 1069 879 l 257
 1073 1024 l 257
 254 1024 l 257
790 592 m 257
 789 -1 l 257
 947 0 l 257
 943 592 l 257
 790 592 l 257
457 602 m 257
 459 445 l 257
 882 444 l 257
 882 600 l 257
 457 602 l 257
454 589 m 257
 454 12 l 257
 628 12 l 257
 628 589 l 257
 454 589 l 257
452 187 m 257
 453 -2 l 257
 946 0 l 257
 946 188 l 257
 452 187 l 257
166 1024 m 257
 167 -223 l 257
 342 -223 l 257
 342 1024 l 257
 166 1024 l 257
164 -86 m 257
 164 -258 l 257
 1112 -258 l 257
 1112 -86 l 257
 164 -86 l 257
1015 1011 m 257
 1015 0 l 257
 1166 0 l 257
 1166 1011 l 257
 1015 1011 l 257
887 175 m 257
 887 1 l 257
 1096 1 l 257
 1096 175 l 257
 887 175 l 257
EndSplineSet
EndChar

StartChar: b
Encoding: 98 98 32
GlifName: b
Width: 1024
VWidth: 0
Flags: HW
LayerCount: 2
Fore
SplineSet
223 1536 m 257
 223 1 l 257
 406 1 l 257
 406 1536 l 257
 223 1536 l 257
320 1033 m 257
 320 814 l 257
 838 814 l 257
 838 1033 l 257
 320 1033 l 257
778 1033 m 257
 778 0 l 257
 977 0 l 257
 977 1033 l 257
 778 1033 l 257
348 178 m 257
 348 1 l 257
 898 1 l 257
 898 178 l 257
 348 178 l 257
EndSplineSet
PickledDataWithLists: "(dp0
."
EndChar

StartChar: backslash
Encoding: 92 92 33
GlifName: backslash
Width: 1024
VWidth: 0
Flags: HW
LayerCount: 2
Fore
SplineSet
168 1441 m 257
 795 -13 l 257
 986 65 l 257
 360 1519 l 257
 168 1441 l 257
EndSplineSet
PickledDataWithLists: "(dp0
."
EndChar

StartChar: bar
Encoding: 124 124 34
GlifName: bar
Width: 1024
VWidth: 0
Flags: HW
LayerCount: 2
Fore
SplineSet
525 1435 m 257
 525 -90 l 257
 728 -90 l 257
 728 1435 l 257
 525 1435 l 257
EndSplineSet
PickledDataWithLists: "(dp0
."
EndChar

StartChar: braceleft
Encoding: 123 123 35
GlifName: braceleft
Width: 1024
VWidth: 0
Flags: HW
LayerCount: 2
Fore
SplineSet
421 1544 m 257
 425 838 l 257
 571 838 l 257
 567 1544 l 257
 421 1544 l 257
433 424 m 257
 433 -286 l 257
 579 -286 l 257
 579 424 l 257
 433 424 l 257
132 690 m 257
 132 630 l 257
 567 838 l 257
 421 838 l 257
 132 690 l 257
132 690 m 257
 132 630 l 257
 431 423 l 257
 580 425 l 257
 132 690 l 257
422 1603 m 257
 422 1452 l 257
 690 1574 l 257
 694 1603 l 257
 422 1603 l 257
434 -140 m 257
 434 -284 l 257
 709 -287 l 257
 710 -274 l 257
 434 -140 l 257
EndSplineSet
EndChar

StartChar: braceright
Encoding: 125 125 36
GlifName: braceright
Width: 1024
VWidth: 0
Flags: HW
LayerCount: 2
Fore
SplineSet
421 1544 m 257
 417 838 l 257
 271 838 l 257
 275 1544 l 257
 421 1544 l 257
409 424 m 257
 409 -286 l 257
 263 -286 l 257
 263 424 l 257
 409 424 l 257
710 690 m 257
 710 630 l 257
 275 838 l 257
 421 838 l 257
 710 690 l 257
710 690 m 257
 710 630 l 257
 411 423 l 257
 262 425 l 257
 710 690 l 257
420 1603 m 257
 420 1452 l 257
 152 1574 l 257
 148 1603 l 257
 420 1603 l 257
408 -140 m 257
 408 -284 l 257
 133 -287 l 257
 132 -274 l 257
 408 -140 l 257
EndSplineSet
EndChar

StartChar: bracketleft
Encoding: 91 91 37
GlifName: bracketleft
Width: 1024
VWidth: 0
Flags: HW
LayerCount: 2
Fore
SplineSet
162 1542 m 257
 167 -242 l 257
 289 -242 l 257
 284 1542 l 257
 162 1542 l 257
216 1543 m 257
 216 1416 l 257
 425 1416 l 257
 425 1543 l 257
 216 1543 l 257
216 -91 m 257
 216 -242 l 257
 430 -242 l 257
 430 -91 l 257
 216 -91 l 257
EndSplineSet
PickledDataWithLists: "(dp0
Vxyz.fontra.layer-names
p1
(dp2
VSamaano-Bold/public.default
p3
Vdefault
p4
ss."
EndChar

StartChar: bracketright
Encoding: 93 93 38
GlifName: bracketright
Width: 1024
VWidth: 0
Flags: HW
LayerCount: 2
Fore
SplineSet
366 1542 m 257
 371 -242 l 257
 493 -242 l 257
 488 1542 l 257
 366 1542 l 257
216 1543 m 257
 216 1416 l 257
 425 1416 l 257
 425 1543 l 257
 216 1543 l 257
216 -91 m 257
 216 -242 l 257
 430 -242 l 257
 430 -91 l 257
 216 -91 l 257
EndSplineSet
PickledDataWithLists: "(dp0
Vxyz.fontra.layer-names
p1
(dp2
VSamaano-Bold/public.default
p3
Vdefault
p4
ss."
EndChar

StartChar: c
Encoding: 99 99 39
GlifName: c
Width: 1024
VWidth: 0
Flags: HW
LayerCount: 2
Fore
SplineSet
252 1023 m 257
 254 822 l 257
 946 822 l 257
 948 1027 l 257
 252 1023 l 257
254 984 m 257
 254 -1 l 257
 456 0 l 257
 456 984 l 257
 254 984 l 257
360 197 m 257
 360 4 l 257
 942 0 l 257
 942 201 l 257
 360 197 l 257
EndSplineSet
PickledDataWithLists: "(dp0
."
EndChar

StartChar: colon
Encoding: 58 58 40
GlifName: colon
Width: 1024
VWidth: 0
Flags: HW
LayerCount: 2
Fore
SplineSet
399 430 m 257
 399 201 l 257
 647 201 l 257
 647 430 l 257
 399 430 l 257
376 871 m 257
 376 624 l 257
 641 624 l 257
 641 871 l 257
 376 871 l 257
EndSplineSet
PickledDataWithLists: "(dp0
."
EndChar

StartChar: comma
Encoding: 44 44 41
GlifName: comma
Width: 1024
VWidth: 0
Flags: HW
LayerCount: 2
Fore
SplineSet
397 237 m 257
 397 8 l 257
 645 8 l 257
 645 237 l 257
 397 237 l 257
496 135 m 257
 378 -146 l 257
 521 -206 l 257
 643 4 l 257
 496 135 l 257
EndSplineSet
PickledDataWithLists: "(dp0
."
EndChar

StartChar: d
Encoding: 100 100 42
GlifName: d
Width: 1024
VWidth: 0
Flags: HW
LayerCount: 2
Fore
SplineSet
738 1527 m 257
 738 -1 l 257
 981 -1 l 257
 981 1527 l 257
 738 1527 l 257
316 1023 m 257
 321 794 l 257
 869 794 l 257
 869 1023 l 257
 316 1023 l 257
219 1037 m 257
 219 3 l 257
 501 3 l 257
 501 1027 l 257
 219 1037 l 257
316 217 m 257
 316 -6 l 257
 933 -6 l 257
 933 217 l 257
 316 217 l 257
EndSplineSet
PickledDataWithLists: "(dp0
."
EndChar

StartChar: dollar
Encoding: 36 36 43
GlifName: dollar
Width: 1024
VWidth: 0
Flags: HW
LayerCount: 2
Fore
SplineSet
146 1539 m 257
 146 1358 l 257
 744 1358 l 257
 744 1539 l 257
 146 1539 l 257
146 1542 m 257
 146 1028 l 257
 351 1028 l 257
 351 1542 l 257
 146 1542 l 257
174 163 m 257
 174 0 l 257
 882 0 l 257
 882 163 l 257
 174 163 l 257
712 1 m 257
 918 1 l 257
 918 355 l 257
 712 355 l 257
 712 1 l 257
146 1028 m 257
 712 355 l 257
 918 355 l 257
 351 1028 l 257
 146 1028 l 257
405 1636 m 257
 405 -215 l 257
 619 -215 l 257
 619 1636 l 257
 405 1636 l 257
EndSplineSet
PickledDataWithLists: "(dp0
."
EndChar

StartChar: e
Encoding: 101 101 44
GlifName: e
Width: 1024
VWidth: 0
Flags: HW
LayerCount: 2
Fore
SplineSet
306 1021 m 257
 314 812 l 257
 944 822 l 257
 940 1028 l 257
 306 1021 l 257
256 1024 m 257
 252 -1 l 257
 454 0 l 257
 458 1022 l 257
 256 1024 l 257
358 197 m 257
 358 4 l 257
 940 0 l 257
 940 201 l 257
 358 197 l 257
326 625 m 257
 334 445 l 257
 912 446 l 257
 912 622 l 257
 326 625 l 257
754 995 m 257
 748 445 l 257
 948 445 l 257
 940 993 l 257
 754 995 l 257
EndSplineSet
PickledDataWithLists: "(dp0
."
EndChar

StartChar: eight
Encoding: 56 56 45
GlifName: eight
Width: 1024
VWidth: 0
Flags: HW
LayerCount: 2
Fore
SplineSet
137 0 m 257
 137 856 l 257
 335 856 l 257
 335 0 l 257
 137 0 l 257
137 895 m 257
 130 1639 l 257
 334 1639 l 257
 335 896 l 257
 137 895 l 257
146 0 m 257
 145 212 l 257
 1043 213 l 257
 1043 -3 l 257
 146 0 l 257
181 1415 m 257
 181 1638 l 257
 987 1639 l 257
 987 1417 l 257
 181 1415 l 257
137 759 m 257
 137 986 l 257
 1042 986 l 257
 1042 759 l 257
 137 759 l 257
854 33 m 257
 854 864 l 257
 1042 864 l 257
 1042 33 l 257
 854 33 l 257
849 950 m 257
 849 1638 l 257
 1043 1638 l 257
 1042 948 l 257
 849 950 l 257
EndSplineSet
EndChar

StartChar: equal
Encoding: 61 61 46
GlifName: equal
Width: 1024
VWidth: 0
Flags: HW
LayerCount: 2
Fore
SplineSet
130 914 m 257
 130 724 l 257
 947 724 l 257
 947 914 l 257
 130 914 l 257
130 540 m 257
 130 350 l 257
 947 350 l 257
 947 540 l 257
 130 540 l 257
EndSplineSet
PickledDataWithLists: "(dp0
."
EndChar

StartChar: exclam
Encoding: 33 33 47
GlifName: exclam
Width: 1024
VWidth: 0
Flags: HW
LayerCount: 2
Fore
SplineSet
528 126 m 257
 672 126 l 257
 672 374 l 257
 528 374 l 257
 528 126 l 257
538 611 m 257
 666 611 l 257
 666 1629 l 257
 538 1629 l 257
 538 611 l 257
EndSplineSet
EndChar

StartChar: f
Encoding: 102 102 48
GlifName: f
Width: 1024
VWidth: 0
Flags: HW
LayerCount: 2
Fore
SplineSet
467 1032 m 257
 474 -411 l 257
 711 -406 l 257
 703 1033 l 257
 467 1032 l 257
529 1031 m 257
 529 801 l 257
 1042 801 l 257
 1042 1031 l 257
 529 1031 l 257
283 624 m 257
 283 356 l 257
 914 356 l 257
 914 624 l 257
 283 624 l 257
EndSplineSet
EndChar

StartChar: five
Encoding: 53 53 49
GlifName: five
Width: 1024
VWidth: 0
Flags: HW
LayerCount: 2
Fore
SplineSet
127 863 m 257
 127 1619 l 257
 330 1619 l 257
 330 863 l 257
 127 863 l 257
126 190 m 257
 1065 188 l 257
 1064 -2 l 257
 123 0 l 257
 126 190 l 257
128 1418 m 257
 128 1629 l 257
 1072 1641 l 257
 1072 1418 l 257
 128 1418 l 257
127 759 m 257
 127 986 l 257
 1062 986 l 257
 1062 759 l 257
 127 759 l 257
858 52 m 257
 858 947 l 257
 1063 947 l 257
 1063 52 l 257
 858 52 l 257
EndSplineSet
EndChar

StartChar: four
Encoding: 52 52 50
GlifName: four
Width: 1024
VWidth: 0
Flags: HW
LayerCount: 2
Fore
SplineSet
148 884 m 257
 148 1640 l 257
 351 1640 l 257
 351 884 l 257
 148 884 l 257
147 759 m 257
 147 986 l 257
 988 988 l 257
 988 761 l 257
 147 759 l 257
783 7 m 257
 783 818 l 257
 992 818 l 257
 992 7 l 257
 783 7 l 257
792 940 m 257
 792 1627 l 257
 986 1627 l 257
 986 940 l 257
 792 940 l 257
EndSplineSet
EndChar

StartChar: g
Encoding: 103 103 51
GlifName: g
Width: 1024
VWidth: 0
Flags: HW
LayerCount: 2
Fore
SplineSet
297 1023 m 257
 297 0 l 257
 489 0 l 257
 489 1023 l 257
 297 1023 l 257
337 1021 m 257
 337 810 l 257
 853 810 l 257
 853 1021 l 257
 337 1021 l 257
681 1024 m 257
 681 -411 l 257
 875 -411 l 257
 875 1024 l 257
 681 1024 l 257
360 206 m 257
 360 -1 l 257
 817 -1 l 257
 817 206 l 257
 360 206 l 257
337 -206 m 257
 337 -413 l 257
 826 -413 l 257
 826 -206 l 257
 337 -206 l 257
EndSplineSet
PickledDataWithLists: "(dp0
."
EndChar

StartChar: grave
Encoding: 96 96 52
GlifName: grave
Width: 1024
VWidth: 0
Flags: HW
LayerCount: 2
Fore
SplineSet
266 1358 m 257
 411 1057 l 257
 560 1129 l 257
 414 1430 l 257
 266 1358 l 257
EndSplineSet
PickledDataWithLists: "(dp0
."
EndChar

StartChar: greater
Encoding: 62 62 53
GlifName: greater
Width: 1024
VWidth: 0
Flags: HW
LayerCount: 2
Fore
SplineSet
955 777 m 257
 133 1013 l 257
 130 807 l 257
 956 568 l 257
 955 777 l 257
955 777 m 257
 135 319 l 257
 135 122 l 257
 956 568 l 257
 955 777 l 257
EndSplineSet
PickledDataWithLists: "(dp0
."
EndChar

StartChar: h
Encoding: 104 104 54
GlifName: h
Width: 1024
VWidth: 0
Flags: HW
LayerCount: 2
Fore
SplineSet
147 1525 m 257
 147 6 l 257
 342 6 l 257
 342 1525 l 257
 147 1525 l 257
282 1028 m 257
 282 813 l 257
 813 813 l 257
 813 1028 l 257
 282 1028 l 257
618 1028 m 257
 618 1 l 257
 823 1 l 257
 823 1028 l 257
 618 1028 l 257
EndSplineSet
PickledDataWithLists: "(dp0
."
EndChar

StartChar: hyphen
Encoding: 45 45 55
GlifName: hyphen
Width: 1024
VWidth: 0
Flags: HW
LayerCount: 2
Fore
SplineSet
99 808 m 257
 99 600 l 257
 925 600 l 257
 925 808 l 257
 99 808 l 257
EndSplineSet
PickledDataWithLists: "(dp0
."
EndChar

StartChar: i
Encoding: 105 105 56
GlifName: i
Width: 1024
VWidth: 0
Flags: HW
LayerCount: 2
Fore
SplineSet
402 1018 m 257
 402 139 l 257
 673 139 l 257
 673 1018 l 257
 402 1018 l 257
177 272 m 257
 177 6 l 257
 919 6 l 257
 919 272 l 257
 177 272 l 257
305 1437 m 257
 305 1177 l 257
 555 1177 l 257
 555 1437 l 257
 305 1437 l 257
227 1018 m 257
 227 768 l 257
 603 768 l 257
 603 1018 l 257
 227 1018 l 257
EndSplineSet
PickledDataWithLists: "(dp0
."
EndChar

StartChar: j
Encoding: 106 106 57
GlifName: j
Width: 1024
VWidth: 0
Flags: HW
LayerCount: 2
Fore
SplineSet
556 1024 m 257
 556 -411 l 257
 803 -411 l 257
 803 1024 l 257
 556 1024 l 257
174 -209 m 257
 174 -409 l 257
 704 -409 l 257
 704 -209 l 257
 174 -209 l 257
175 -6 m 257
 175 -351 l 257
 341 -351 l 257
 341 -6 l 257
 175 -6 l 257
532 1413 m 257
 532 1147 l 257
 797 1147 l 257
 797 1413 l 257
 532 1413 l 257
EndSplineSet
PickledDataWithLists: "(dp0
."
EndChar

StartChar: k
Encoding: 107 107 58
GlifName: k
Width: 1024
VWidth: 0
Flags: HW
LayerCount: 2
Fore
SplineSet
118 1535 m 257
 118 5 l 257
 289 5 l 257
 289 1535 l 257
 118 1535 l 257
167 516 m 257
 216 298 l 257
 903 1023 l 257
 686 1028 l 257
 167 516 l 257
424 631 m 257
 272 483 l 257
 776 -1 l 257
 992 0 l 257
 424 631 l 257
EndSplineSet
PickledDataWithLists: "(dp0
."
EndChar

StartChar: ka-deva
Encoding: 2325 2325 59
GlifName: ka-deva
Width: 1024
VWidth: 0
Flags: HW
LayerCount: 2
Fore
SplineSet
92 1406 m 257
 92 1280 l 257
 1108 1278 l 257
 1108 1404 l 257
 92 1406 l 257
614 1375 m 257
 614 10 l 257
 810 10 l 257
 810 1375 l 257
 614 1375 l 257
224 1029 m 257
 224 856 l 257
 706 856 l 257
 706 1029 l 257
 224 1029 l 257
224 987 m 257
 218 512 l 257
 388 516 l 257
 390 989 l 257
 224 987 l 257
242 671 m 257
 242 516 l 257
 668 512 l 257
 668 677 l 257
 242 671 l 257
720 874 m 257
 720 746 l 257
 1026 746 l 257
 1026 874 l 257
 720 874 l 257
956 872 m 257
 952 587 l 257
 1074 587 l 257
 1076 879 l 257
 956 872 l 257
EndSplineSet
PickledDataWithLists: "(dp0
."
EndChar

StartChar: l
Encoding: 108 108 60
GlifName: l
Width: 1024
VWidth: 0
Flags: HW
LayerCount: 2
Fore
SplineSet
193 175 m 257
 193 9 l 257
 827 9 l 257
 827 175 l 257
 193 175 l 257
383 1536 m 257
 383 86 l 257
 637 86 l 257
 637 1536 l 257
 383 1536 l 257
256 1536 m 257
 256 1355 l 257
 491 1355 l 257
 491 1536 l 257
 256 1536 l 257
EndSplineSet
PickledDataWithLists: "(dp0
."
EndChar

StartChar: less
Encoding: 60 60 61
GlifName: less
Width: 1024
VWidth: 0
Flags: HW
LayerCount: 2
Fore
SplineSet
134 777 m 257
 134 569 l 257
 955 807 l 257
 952 1013 l 257
 134 777 l 257
134 777 m 257
 134 569 l 257
 950 122 l 257
 950 319 l 257
 134 777 l 257
EndSplineSet
PickledDataWithLists: "(dp0
."
EndChar

StartChar: m
Encoding: 109 109 62
GlifName: m
Width: 1024
VWidth: 0
Flags: HW
LayerCount: 2
Fore
SplineSet
110 993 m 257
 110 1 l 257
 263 1 l 257
 263 993 l 257
 110 993 l 257
457 972 m 257
 457 -2 l 257
 610 -2 l 257
 610 972 l 257
 457 972 l 257
787 976 m 257
 787 1 l 257
 940 1 l 257
 940 976 l 257
 787 976 l 257
33 1023 m 257
 34 883 l 257
 940 887 l 257
 939 1027 l 257
 33 1023 l 257
EndSplineSet
PickledDataWithLists: "(dp0
."
EndChar

StartChar: n
Encoding: 110 110 63
GlifName: n
Width: 1024
VWidth: 0
Flags: HW
LayerCount: 2
Fore
SplineSet
340 990 m 257
 340 -2 l 257
 493 -2 l 257
 493 990 l 257
 340 990 l 257
787 976 m 257
 787 1 l 257
 940 1 l 257
 940 976 l 257
 787 976 l 257
161 1023 m 257
 162 883 l 257
 940 887 l 257
 939 1027 l 257
 161 1023 l 257
EndSplineSet
PickledDataWithLists: "(dp0
."
EndChar

StartChar: nine
Encoding: 57 57 64
GlifName: nine
Width: 1024
VWidth: 0
Flags: HW
LayerCount: 2
Fore
SplineSet
122 868 m 257
 122 1624 l 257
 325 1624 l 257
 325 868 l 257
 122 868 l 257
199 205 m 257
 977 208 l 257
 980 -1 l 257
 211 -1 l 257
 199 205 l 257
123 1419 m 257
 122 1640 l 257
 1057 1637 l 257
 1058 1416 l 257
 123 1419 l 257
122 759 m 257
 122 986 l 257
 1062 986 l 257
 1062 759 l 257
 122 759 l 257
862 1 m 257
 863 838 l 257
 1063 833 l 257
 1067 0 l 257
 862 1 l 257
863 879 m 257
 863 1511 l 257
 1057 1511 l 257
 1062 879 l 257
 863 879 l 257
EndSplineSet
EndChar

StartChar: numbersign
Encoding: 35 35 65
GlifName: numbersign
Width: 1024
VWidth: 0
Flags: HW
LayerCount: 2
Fore
SplineSet
214 1348 m 257
 201 314 l 257
 341 313 l 257
 354 1347 l 257
 214 1348 l 257
625 1352 m 257
 613 281 l 257
 779 279 l 257
 792 1350 l 257
 625 1352 l 257
85 1165 m 257
 83 1018 l 257
 901 1010 l 257
 903 1157 l 257
 85 1165 l 257
85 776 m 257
 83 600 l 257
 910 592 l 257
 912 767 l 257
 85 776 l 257
EndSplineSet
PickledDataWithLists: "(dp0
."
EndChar

StartChar: o
Encoding: 111 111 66
GlifName: o
Width: 1024
VWidth: 0
Flags: HW
LayerCount: 2
Fore
SplineSet
108 1024 m 257
 106 0 l 257
 334 0 l 257
 332 1022 l 257
 108 1024 l 257
696 1024 m 257
 696 0 l 257
 925 0 l 257
 925 1024 l 257
 696 1024 l 257
231 1021 m 257
 231 813 l 257
 816 813 l 257
 817 1024 l 257
 231 1021 l 257
235 215 m 257
 235 1 l 257
 807 1 l 257
 807 215 l 257
 235 215 l 257
EndSplineSet
PickledDataWithLists: "(dp0
."
EndChar

StartChar: one
Encoding: 49 49 67
GlifName: one
Width: 1024
VWidth: 0
Flags: HW
LayerCount: 2
Fore
SplineSet
463 5 m 257
 463 850 l 257
 737 845 l 257
 737 0 l 257
 463 5 l 257
470 935 m 257
 470 1640 l 257
 746 1640 l 257
 746 935 l 257
 470 935 l 257
EndSplineSet
PickledDataWithLists: "(dp0
."
EndChar

StartChar: p
Encoding: 112 112 68
GlifName: p
Width: 1024
VWidth: 0
Flags: HW
LayerCount: 2
Fore
SplineSet
173 1023 m 257
 173 -406 l 257
 337 -406 l 257
 337 1023 l 257
 173 1023 l 257
271 832 m 257
 271 610 l 257
 812 611 l 257
 810 832 l 257
 271 832 l 257
275 306 m 257
 278 104 l 257
 818 104 l 257
 815 305 l 257
 275 306 l 257
610 731 m 257
 610 218 l 257
 816 218 l 257
 811 731 l 257
 610 731 l 257
EndSplineSet
PickledDataWithLists: "(dp0
."
EndChar

StartChar: parenleft
Encoding: 40 40 69
GlifName: parenleft
Width: 1024
VWidth: 0
Flags: HW
LayerCount: 2
Fore
SplineSet
409 1026 m 257
 409 179 l 257
 599 179 l 257
 599 1026 l 257
 409 1026 l 257
728 1633 m 257
 409 1026 l 257
 598 1028 l 257
 758 1640 l 257
 728 1633 l 257
409 179 m 257
 753 -406 l 257
 786 -408 l 257
 600 179 l 257
 409 179 l 257
EndSplineSet
EndChar

StartChar: parenright
Encoding: 41 41 70
GlifName: parenright
Width: 1024
VWidth: 0
Flags: HW
LayerCount: 2
Fore
SplineSet
347 1026 m 257
 537 1026 l 257
 537 179 l 257
 347 179 l 257
 347 1026 l 257
204 1630 m 257
 242 1629 l 257
 537 1026 l 257
 347 1025 l 257
 204 1630 l 257
347 179 m 257
 537 179 l 257
 233 -409 l 257
 204 -407 l 257
 347 179 l 257
EndSplineSet
EndChar

StartChar: percent
Encoding: 37 37 71
GlifName: percent
Width: 1024
VWidth: 0
Flags: HW
LayerCount: 2
Fore
SplineSet
97 522 m 257
 140 377 l 257
 964 716 l 257
 920 860 l 257
 97 522 l 257
237 1148 m 257
 237 822 l 257
 315 822 l 257
 315 1148 l 257
 237 1148 l 257
237 1152 m 257
 237 1057 l 257
 584 1057 l 257
 584 1152 l 257
 237 1152 l 257
237 871 m 257
 237 789 l 257
 581 789 l 257
 581 871 l 257
 237 871 l 257
492 1152 m 257
 492 791 l 257
 584 791 l 257
 584 1152 l 257
 492 1152 l 257
564 436 m 257
 564 110 l 257
 642 110 l 257
 642 436 l 257
 564 436 l 257
564 440 m 257
 564 345 l 257
 911 345 l 257
 911 440 l 257
 564 440 l 257
564 159 m 257
 564 77 l 257
 908 77 l 257
 908 159 l 257
 564 159 l 257
819 440 m 257
 819 79 l 257
 911 79 l 257
 911 440 l 257
 819 440 l 257
EndSplineSet
PickledDataWithLists: "(dp0
."
EndChar

StartChar: period
Encoding: 46 46 72
GlifName: period
Width: 1024
VWidth: 0
Flags: HW
LayerCount: 2
Fore
SplineSet
379 246 m 257
 379 -1 l 257
 644 -1 l 257
 644 246 l 257
 379 246 l 257
EndSplineSet
PickledDataWithLists: "(dp0
."
EndChar

StartChar: plus
Encoding: 43 43 73
GlifName: plus
Width: 1024
VWidth: 0
Flags: HW
LayerCount: 2
Fore
SplineSet
384 1221 m 257
 384 165 l 257
 609 165 l 257
 609 1221 l 257
 384 1221 l 257
61 821 m 257
 61 613 l 257
 963 613 l 257
 963 821 l 257
 61 821 l 257
EndSplineSet
PickledDataWithLists: "(dp0
."
EndChar

StartChar: q
Encoding: 113 113 74
GlifName: q
Width: 1024
VWidth: 0
Flags: HW
LayerCount: 2
Fore
SplineSet
701 1011 m 257
 701 -396 l 257
 861 -396 l 257
 861 1011 l 257
 701 1011 l 257
205 855 m 257
 205 614 l 257
 854 614 l 257
 854 855 l 257
 205 855 l 257
202 352 m 257
 202 107 l 257
 818 107 l 257
 818 352 l 257
 202 352 l 257
188 855 m 257
 188 107 l 257
 409 107 l 257
 409 855 l 257
 188 855 l 257
701 -268 m 257
 701 -410 l 257
 937 -410 l 257
 937 -268 l 257
 701 -268 l 257
EndSplineSet
PickledDataWithLists: "(dp0
."
EndChar

StartChar: question
Encoding: 63 63 75
GlifName: question
Width: 1024
VWidth: 0
Flags: HW
LayerCount: 2
Fore
SplineSet
368 246 m 257
 368 0 l 257
 618 0 l 257
 613 247 l 257
 368 246 l 257
191 1519 m 257
 191 1333 l 257
 828 1333 l 257
 828 1519 l 257
 191 1519 l 257
638 1514 m 257
 638 966 l 257
 832 966 l 257
 832 1514 l 257
 638 1514 l 257
368 1015 m 257
 368 816 l 257
 832 816 l 257
 832 1015 l 257
 368 1015 l 257
368 1011 m 257
 368 392 l 257
 616 392 l 257
 616 1011 l 257
 368 1011 l 257
EndSplineSet
PickledDataWithLists: "(dp0
."
EndChar

StartChar: quotedbl
Encoding: 34 34 76
GlifName: quotedbl
Width: 1024
VWidth: 0
Flags: HW
LayerCount: 2
Fore
SplineSet
328 1326 m 257
 472 1326 l 257
 472 1574 l 257
 328 1574 l 257
 328 1326 l 257
728 1326 m 257
 872 1326 l 257
 872 1574 l 257
 728 1574 l 257
 728 1326 l 257
EndSplineSet
EndChar

StartChar: quotesingle
Encoding: 39 39 77
GlifName: quotesingle
Width: 1024
VWidth: 0
Flags: HW
LayerCount: 2
Fore
SplineSet
480 1496 m 257
 480 1264 l 257
 610 1264 l 257
 610 1496 l 257
 480 1496 l 257
EndSplineSet
PickledDataWithLists: "(dp0
."
EndChar

StartChar: r
Encoding: 114 114 78
GlifName: r
Width: 1024
VWidth: 0
Flags: HW
LayerCount: 2
Fore
SplineSet
165 1013 m 257
 165 850 l 257
 898 850 l 257
 898 1013 l 257
 165 1013 l 257
380 954 m 257
 380 -2 l 257
 580 -2 l 257
 580 954 l 257
 380 954 l 257
735 976 m 257
 735 650 l 257
 898 650 l 257
 898 976 l 257
 735 976 l 257
EndSplineSet
PickledDataWithLists: "(dp0
."
EndChar

StartChar: s
Encoding: 115 115 79
GlifName: s
Width: 1024
VWidth: 0
Flags: HW
LayerCount: 2
Fore
SplineSet
186 1024 m 257
 187 814 l 257
 796 818 l 257
 795 1024 l 257
 186 1024 l 257
186 1024 m 257
 187 736 l 257
 369 736 l 257
 368 1024 l 257
 186 1024 l 257
187 209 m 257
 186 1 l 257
 793 0 l 257
 792 210 l 257
 187 209 l 257
609 292 m 257
 611 12 l 257
 793 12 l 257
 791 293 l 257
 609 292 l 257
187 736 m 257
 609 292 l 257
 791 293 l 257
 369 736 l 257
 187 736 l 257
EndSplineSet
PickledDataWithLists: "(dp0
."
EndChar

StartChar: semicolon
Encoding: 59 59 80
GlifName: semicolon
Width: 1024
VWidth: 0
Flags: HW
LayerCount: 2
Fore
SplineSet
400 430 m 257
 400 201 l 257
 648 201 l 257
 648 430 l 257
 400 430 l 257
499 328 m 257
 381 47 l 257
 524 -13 l 257
 646 197 l 257
 499 328 l 257
377 871 m 257
 377 624 l 257
 642 624 l 257
 642 871 l 257
 377 871 l 257
EndSplineSet
PickledDataWithLists: "(dp0
."
EndChar

StartChar: seven
Encoding: 55 55 81
GlifName: seven
Width: 1024
VWidth: 0
Flags: HW
LayerCount: 2
Fore
SplineSet
101 1418 m 257
 101 1629 l 257
 1006 1641 l 257
 1006 1418 l 257
 101 1418 l 257
799 866 m 257
 790 1636 l 257
 1014 1644 l 257
 1017 867 l 257
 799 866 l 257
801 0 m 257
 798 923 l 257
 1017 923 l 257
 1017 0 l 257
 801 0 l 257
EndSplineSet
EndChar

StartChar: six
Encoding: 54 54 82
GlifName: six
Width: 1024
VWidth: 0
Flags: HW
LayerCount: 2
Fore
SplineSet
139 4 m 257
 139 824 l 257
 337 824 l 257
 337 4 l 257
 139 4 l 257
140 889 m 257
 127 1600 l 257
 331 1600 l 257
 331 888 l 257
 140 889 l 257
139 195 m 257
 1064 201 l 257
 1070 8 l 257
 141 0 l 257
 139 195 l 257
129 1418 m 257
 128 1629 l 257
 1072 1641 l 257
 1072 1418 l 257
 129 1418 l 257
138 759 m 257
 138 986 l 257
 1062 986 l 257
 1062 759 l 257
 138 759 l 257
860 51 m 257
 860 986 l 257
 1069 986 l 257
 1069 51 l 257
 860 51 l 257
EndSplineSet
EndChar

StartChar: slash
Encoding: 47 47 83
GlifName: slash
Width: 1024
VWidth: 0
Flags: HW
LayerCount: 2
Fore
SplineSet
744 1483 m 257
 174 6 l 257
 362 -67 l 257
 932 1410 l 257
 744 1483 l 257
EndSplineSet
PickledDataWithLists: "(dp0
."
EndChar

StartChar: t
Encoding: 116 116 85
GlifName: t
Width: 1024
VWidth: 0
Flags: HW
LayerCount: 2
Fore
SplineSet
336 1529 m 257
 336 0 l 257
 541 0 l 257
 540 1529 l 257
 336 1529 l 257
418 226 m 257
 418 0 l 257
 809 0 l 257
 809 226 l 257
 418 226 l 257
101 1024 m 257
 102 791 l 257
 776 791 l 257
 775 1025 l 257
 101 1024 l 257
EndSplineSet
PickledDataWithLists: "(dp0
."
EndChar

StartChar: three
Encoding: 51 51 86
GlifName: three
Width: 1024
VWidth: 0
Flags: HW
LayerCount: 2
Fore
SplineSet
144 240 m 257
 1042 242 l 257
 1045 -8 l 257
 154 9 l 257
 144 240 l 257
176 1403 m 257
 174 1631 l 257
 930 1640 l 257
 930 1403 l 257
 176 1403 l 257
186 736 m 257
 186 1001 l 257
 1051 1001 l 257
 1051 736 l 257
 186 736 l 257
843 200 m 257
 843 756 l 257
 1048 756 l 257
 1048 200 l 257
 843 200 l 257
841 964 m 257
 841 1640 l 257
 1048 1640 l 257
 1048 964 l 257
 841 964 l 257
EndSplineSet
PickledDataWithLists: "(dp0
."
EndChar

StartChar: two
Encoding: 50 50 87
GlifName: two
Width: 1024
VWidth: 0
Flags: HW
LayerCount: 2
Fore
SplineSet
98 130 m 257
 98 1024 l 257
 406 1024 l 257
 406 130 l 257
 98 130 l 257
102 247 m 257
 958 259 l 257
 960 0 l 257
 108 0 l 257
 102 247 l 257
230 1433 m 257
 230 1640 l 257
 909 1640 l 257
 909 1433 l 257
 230 1433 l 257
400 751 m 257
 400 1024 l 257
 883 1024 l 257
 883 751 l 257
 400 751 l 257
868 751 m 257
 868 1640 l 257
 1102 1640 l 257
 1102 751 l 257
 868 751 l 257
EndSplineSet
PickledDataWithLists: "(dp0
."
EndChar

StartChar: u
Encoding: 117 117 88
GlifName: u
Width: 1024
VWidth: 0
Flags: HW
LayerCount: 2
Fore
SplineSet
157 1034 m 257
 157 0 l 257
 323 0 l 257
 325 1034 l 257
 157 1034 l 257
615 1033 m 257
 615 4 l 257
 790 4 l 257
 789 1033 l 257
 615 1033 l 257
204 183 m 257
 205 0 l 257
 906 0 l 257
 906 183 l 257
 204 183 l 257
EndSplineSet
PickledDataWithLists: "(dp0
."
EndChar

StartChar: v
Encoding: 118 118 89
GlifName: v
Width: 1024
VWidth: 0
Flags: HW
LayerCount: 2
Fore
SplineSet
165 1021 m 257
 324 0 l 257
 573 0 l 257
 350 1023 l 257
 165 1021 l 257
637 1025 m 257
 477 1 l 257
 684 -2 l 257
 827 1021 l 257
 637 1025 l 257
EndSplineSet
PickledDataWithLists: "(dp0
."
EndChar

StartChar: w
Encoding: 119 119 90
GlifName: w
Width: 1024
VWidth: 0
Flags: HW
LayerCount: 2
Fore
SplineSet
104 1023 m 257
 105 1 l 257
 313 0 l 257
 312 1023 l 257
 104 1023 l 257
714 1028 m 257
 714 12 l 257
 922 12 l 257
 922 1028 l 257
 714 1028 l 257
416 610 m 257
 417 1 l 257
 623 1 l 257
 624 610 l 257
 416 610 l 257
103 276 m 257
 105 1 l 257
 922 0 l 257
 922 276 l 257
 103 276 l 257
EndSplineSet
PickledDataWithLists: "(dp0
."
EndChar

StartChar: x
Encoding: 120 120 91
GlifName: x
Width: 1024
VWidth: 0
Flags: HW
LayerCount: 2
Fore
SplineSet
151 0 m 257
 908 1019 l 257
 1047 1019 l 257
 306 0 l 257
 151 0 l 257
148 1019 m 257
 287 1019 l 257
 1052 0 l 257
 901 0 l 257
 148 1019 l 257
EndSplineSet
EndChar

StartChar: y
Encoding: 121 121 92
GlifName: y
Width: 1024
VWidth: 0
Flags: HW
LayerCount: 2
Fore
SplineSet
684 1023 m 257
 684 -410 l 257
 880 -410 l 257
 880 1023 l 257
 684 1023 l 257
150 -236 m 257
 150 -410 l 257
 867 -410 l 257
 867 -236 l 257
 150 -236 l 257
150 1023 m 257
 150 264 l 257
 354 264 l 257
 354 1023 l 257
 150 1023 l 257
150 506 m 257
 150 264 l 257
 768 264 l 257
 768 506 l 257
 150 506 l 257
EndSplineSet
PickledDataWithLists: "(dp0
."
EndChar

StartChar: z
Encoding: 122 122 93
GlifName: z
Width: 1024
VWidth: 0
Flags: HW
LayerCount: 2
Fore
SplineSet
98 1034 m 257
 98 788 l 257
 926 788 l 257
 926 1034 l 257
 98 1034 l 257
98 259 m 257
 98 13 l 257
 926 13 l 257
 926 259 l 257
 98 259 l 257
618 787 m 257
 97 259 l 257
 406 259 l 257
 926 788 l 257
 618 787 l 257
EndSplineSet
PickledDataWithLists: "(dp0
."
EndChar

StartChar: zero
Encoding: 48 48 94
GlifName: zero
Width: 1024
VWidth: 0
Flags: HW
LayerCount: 2
Fore
SplineSet
127 1 m 257
 127 963 l 257
 329 962 l 257
 329 0 l 257
 127 1 l 257
126 883 m 257
 126 1639 l 257
 330 1639 l 257
 330 883 l 257
 126 883 l 257
169 207 m 257
 997 208 l 257
 999 0 l 257
 171 3 l 257
 169 207 l 257
127 1418 m 257
 125 1638 l 257
 1000 1641 l 257
 1000 1418 l 257
 127 1418 l 257
857 -1 m 257
 857 950 l 257
 1055 950 l 257
 1055 0 l 257
 857 -1 l 257
858 884 m 257
 858 1640 l 257
 1052 1640 l 257
 1052 884 l 257
 858 884 l 257
460 1013 m 257
 460 747 l 257
 741 747 l 257
 741 1013 l 257
 460 1013 l 257
EndSplineSet
EndChar

StartChar: underscore
Encoding: 95 95 95
Width: 1019
Flags: HW
LayerCount: 2
Fore
SplineSet
-5 -5 m 1
 -9 -71 l 1
 1015 -71 l 1
 1019 -5 l 1
 -5 -5 l 1
EndSplineSet
EndChar

